<?xml version="1.0" encoding="utf-8"?>
<!-- Generator: Adobe Illustrator 26.2.1, SVG Export Plug-In . SVG Version: 6.00 Build 0)  -->
<svg version="1.1" id="Layer_1" xmlns="http://www.w3.org/2000/svg" xmlns:xlink="http://www.w3.org/1999/xlink" x="0px" y="0px"
	 viewBox="0 0 245.3 114.7" style="enable-background:new 0 0 245.3 114.7;" xml:space="preserve">
<style type="text/css">
	.st0{fill:#FFFFFF;}
</style>
<g>
	<path class="st0" d="M97.2,99.5c-0.1,0-0.2-0.1-0.4-0.1h-1.3v0.4c-0.3,0-0.6-0.1-0.8-0.2c-0.4-0.2-0.8-0.4-1.1-0.5
		C93.3,99,93,99,92.7,99c-0.9,0-1.6,0.3-2.2,0.9c-0.8,0.7-1.1,1.6-1.1,2.7c0,0.6,0.1,1.2,0.4,1.8c0.3,0.5,0.7,1,1.2,1.3
		c0.2,0.1,0.3,0.2,0.3,0.3c0,0.1-0.2,0.2-0.5,0.4c-0.6,0.3-0.9,0.6-1.1,0.7s-0.3,0.3-0.3,0.4c0,0.2,0.3,0.6,0.8,1.1
		c0.4,0.4,0.6,0.6,0.6,0.7c0,0.1-0.1,0.2-0.4,0.4c-0.4,0.3-0.6,0.5-0.7,0.6c-0.5,0.4-0.7,0.9-0.7,1.5c0,0.8,0.4,1.4,1.1,1.9
		c0.7,0.4,1.5,0.6,2.4,0.6c1.5,0,2.8-0.5,3.7-1.4c0.7-0.7,1-1.5,1-2.4c0-0.9-0.3-1.6-0.9-2.1c-0.6-0.5-1.3-0.7-2.3-0.8
		c-1.3-0.1-2-0.1-2.2-0.2c-0.4-0.1-0.7-0.3-0.7-0.5s0.2-0.4,0.5-0.6c0.3-0.1,0.7-0.2,1.1-0.3c0.9-0.1,1.7-0.3,2.3-0.8
		c0.4-0.3,0.7-0.7,0.9-1.2s0.4-1,0.4-1.6s-0.1-1.1-0.3-1.5c-0.1-0.2-0.1-0.3-0.1-0.4c0-0.1,0.1-0.2,0.3-0.2h0.7c0.1,0,0.2,0,0.3-0.1
		c0-0.1,0.1-0.2,0.1-0.4S97.3,99.5,97.2,99.5z M91.2,109.7c0.2-0.1,0.3-0.2,0.4-0.3c0.2,0,0.3,0,0.6,0c0.9,0,1.6,0.1,2,0.2
		c0.9,0.3,1.4,0.9,1.4,1.9c0,0.6-0.2,1.1-0.6,1.6c-0.5,0.5-1.2,0.8-2,0.8c-0.7,0-1.4-0.2-1.9-0.7s-0.8-1-0.8-1.7
		C90.3,110.8,90.6,110.2,91.2,109.7z M93.9,104.9c-0.3,0.6-0.6,0.9-1.1,0.9c-0.3,0-0.7-0.2-0.9-0.6c-0.4-0.5-0.6-1.4-0.6-2.5
		c0-1,0.1-1.7,0.4-2.3s0.6-0.9,1.1-0.9s0.8,0.3,1.1,0.9s0.4,1.3,0.4,2.3C94.3,103.6,94.2,104.4,93.9,104.9z"/>
	<path class="st0" d="M28.1,108.8c-0.5-0.1-0.7-0.2-0.8-0.3c-0.1-0.2-0.1-0.7-0.2-1.7l-0.3-9c0-0.2,0-0.4,0-0.5c0-0.5,0-0.8,0.1-1
		c0.1-0.1,0.3-0.2,0.6-0.2c0.4,0,0.6-0.1,0.6-0.3c0-0.2-0.1-0.3-0.3-0.3c0,0-0.1,0-0.2,0c-0.4,0.1-0.9,0.1-1.5,0.1
		c-0.2,0-0.3,0-0.5,0c-0.2,0-0.3,0-0.4,0c-0.2,0-0.4,0-0.4,0.1c0,0-0.1,0.2-0.2,0.5l-2.6,9.1l-2.8-9.1C19.1,96,19,95.9,19,95.8
		c-0.1-0.1-0.2-0.1-0.3-0.1c-0.1,0-0.2,0-0.3,0c-0.1,0-0.4,0-0.7,0c-0.8,0-1.3,0-1.5,0s-0.3,0-0.3,0c-0.3,0-0.4,0.1-0.4,0.3
		c0,0.2,0.2,0.3,0.6,0.3c0.4,0,0.6,0.1,0.7,0.2c0.1,0.2,0.2,0.5,0.2,1v0.3l-0.2,9.6c0,0.6-0.1,1-0.2,1.2c-0.1,0.3-0.4,0.4-0.7,0.4
		c-0.3,0-0.5,0.1-0.5,0.3s0.1,0.3,0.3,0.3c0.1,0,0.3-0.1,0.5-0.1c0.2-0.1,0.6-0.1,1-0.1c0.3,0,0.5,0,0.7,0c0.4,0.1,0.7,0.1,0.7,0.1
		c0.3,0,0.4-0.1,0.4-0.3c0-0.2-0.2-0.3-0.5-0.3c-0.4,0-0.7-0.2-0.8-0.4c-0.1-0.2-0.2-0.7-0.2-1.3v-0.1l0.2-9.3L21,109
		c0,0.3,0.2,0.4,0.3,0.4c0.1,0,0.2,0,0.2-0.1c0.1-0.1,0.1-0.3,0.2-0.6l3-10.9l0.3,9.6v0.1c0,0.4-0.1,0.7-0.2,0.9
		c-0.1,0.2-0.3,0.3-0.6,0.3c-0.4,0.1-0.6,0.2-0.6,0.4s0.2,0.3,0.4,0.3c0.1,0,0.3,0,0.5,0c0.5-0.1,0.9-0.1,1.3-0.1
		c0.6,0,1.2,0,1.9,0.1c0.2,0,0.3,0,0.3,0c0.3,0,0.4-0.1,0.4-0.3S28.3,108.8,28.1,108.8z"/>
	<path class="st0" d="M101.8,99.1c-0.6,0-1.2,0.2-1.8,0.5c-0.8,0.4-1.5,1.2-1.9,2.2c-0.4,0.9-0.6,1.8-0.6,2.8c0,1.5,0.4,2.7,1.2,3.7
		c0.7,0.9,1.6,1.3,2.7,1.3c1.2,0,2.2-0.4,2.9-1.2c0.5-0.5,0.7-0.9,0.7-1.3c0-0.2,0-0.3-0.2-0.3c-0.1,0-0.2,0.1-0.3,0.3
		c-0.5,1.1-1.2,1.6-2.2,1.6s-1.7-0.6-2.2-1.6c-0.3-0.7-0.5-1.6-0.5-2.6c0-0.3,0.1-0.5,0.1-0.6c0.1-0.1,0.2-0.1,0.4-0.1h4.5
		c0.2,0,0.4-0.1,0.4-0.1c0.1-0.1,0.1-0.4,0.1-0.7c0-1.1-0.3-2.1-0.9-2.8C103.5,99.5,102.8,99.1,101.8,99.1z M103,102.9
		c-0.2,0.2-0.6,0.3-1.2,0.3h-1.7c-0.2,0-0.3-0.1-0.4-0.2c0-0.5,0.2-1.1,0.4-1.7c0.2-0.6,0.4-1,0.8-1.3c0.3-0.3,0.7-0.5,1-0.5
		c0.2,0,0.4,0.1,0.6,0.2c0.2,0.2,0.4,0.4,0.5,0.6c0.3,0.4,0.4,0.9,0.4,1.5C103.4,102.3,103.2,102.7,103,102.9z"/>
	<path class="st0" d="M89.4,109.5c0-0.2-0.1-0.3-0.3-0.3c-0.4,0-0.7,0-0.8-0.1c-0.2-0.2-0.5-0.7-0.8-1.6L84,96.1
		c-0.1-0.3-0.3-0.5-0.4-0.5c-0.2,0-0.4,0.1-0.5,0.5l-3.6,11.7c-0.1,0.4-0.2,0.7-0.4,0.9c-0.2,0.2-0.4,0.3-0.6,0.3
		c-0.4,0-0.5,0.1-0.6,0.1c-0.1,0-0.1,0.1-0.1,0.2c0,0.2,0.1,0.3,0.4,0.3c0.1,0,0.3,0,0.6,0h1H81h0.4c0.3,0,0.5-0.1,0.5-0.3
		c0-0.2-0.2-0.3-0.6-0.3c-0.4,0-0.7-0.1-0.9-0.2c-0.1-0.1-0.2-0.3-0.2-0.6s0-0.6,0.1-0.8l0.7-2.3c0.1-0.3,0.1-0.4,0.1,0
		c0.1-0.1,0.3-0.1,0.5-0.1h2.3c0.2,0,0.4,0,0.5,0.1c0,0.1,0.1,0.2,0.2,0.5l0.7,2.4c0.1,0.2,0.1,0.5,0.1,0.7c0,0.3-0.1,0.5-0.5,0.5
		c-0.3,0-0.5,0.1-0.6,0.1c-0.1,0-0.1,0.1-0.1,0.2c0,0.2,0.2,0.3,0.4,0.3c0.1,0,0.2,0,0.3,0c0.6-0.1,1.1-0.1,1.5-0.1
		c1.2,0,2,0.1,2.4,0.1c0.1,0,0.2,0,0.2,0C89.3,109.8,89.4,109.7,89.4,109.5z M84,104h-2.2c-0.2,0-0.3-0.1-0.4-0.2
		c0-0.1,0.1-0.2,0.1-0.3l1.1-3.8c0.1-0.2,0.1-0.3,0.2-0.3c0.1,0,0.1,0.1,0.2,0.3l1.2,3.7c0.1,0.2,0.1,0.4,0.1,0.4
		C84.3,103.9,84.2,104,84,104z"/>
	<path class="st0" d="M41.5,99C41.5,99,41.6,99,41.5,99C41.5,98.9,41.5,99,41.5,99z"/>
	<path class="st0" d="M51.2,104.2c-0.4-0.3-1-0.8-1.9-1.3c-0.8-0.4-1.2-0.7-1.5-1s-0.4-0.6-0.4-1s0.1-0.7,0.4-1s0.7-0.4,1.1-0.4
		c0.4,0,0.7,0.1,1,0.4c0.3,0.2,0.5,0.6,0.7,1.2c0.2,0.4,0.3,0.6,0.5,0.6c0.2,0,0.3-0.1,0.3-0.4v-1.5c0-0.3-0.1-0.4,0.1-0.7
		c-0.5-0.2-1.1-0.3-1.7-0.3c-0.7,0-1.3,0.2-1.8,0.4c-0.6,0.3-1,0.7-1.3,1.1c-0.3,0.5-0.5,1-0.5,1.5c0,0.7,0.2,1.2,0.7,1.7
		c0.2,0.2,0.9,0.7,1.9,1.3c0.6,0.4,1.1,0.8,1.4,1.2c0.3,0.3,0.4,0.7,0.4,1.2s-0.2,0.9-0.5,1.3c-0.3,0.3-0.7,0.5-1.1,0.5
		c-0.3,0-0.5-0.1-0.8-0.2c-0.3-0.1-0.5-0.3-0.6-0.5c-0.2-0.2-0.4-0.7-0.7-1.5c-0.2-0.5-0.4-0.7-0.5-0.7c-0.2,0-0.3,0.2-0.3,0.5v2
		c0,0.3,0.1,0.5,0.3,0.6c0.5,0.2,1.2,0.3,2,0.3c1,0,1.9-0.3,2.6-0.9c0.7-0.6,1-1.4,1-2.3C52,105.5,51.7,104.8,51.2,104.2z"/>
	<path class="st0" d="M61.1,109c-0.4-0.1-0.7-0.2-0.8-0.3c-0.2-0.1-0.3-0.3-0.5-0.7l-2.3-4.6c-0.1-0.3-0.2-0.4-0.2-0.5
		s0.1-0.3,0.3-0.5l1.3-1.4c0.5-0.5,0.9-0.8,1.4-0.9c0.3-0.1,0.5-0.2,0.6-0.2c0.1,0,0.1-0.1,0.1-0.2c0-0.2-0.2-0.3-0.4-0.3
		c0,0-0.1,0-0.3,0c-0.3,0-0.7,0-1,0c-0.7,0-1.3-0.1-1.9-0.1h-0.1c-0.2,0-0.3,0.1-0.3,0.3c0,0.1,0,0.2,0.1,0.2
		c0.1,0.1,0.2,0.1,0.4,0.1c0.6,0,0.9,0.2,0.9,0.5c0,0.2-0.1,0.4-0.2,0.5l-2.3,2.6c-0.1,0.1-0.2,0.2-0.3,0.2c-0.1,0-0.1-0.1-0.1-0.4
		v-8.9c0-0.1,0-0.2-0.5,0c0-0.1,0-0.1-0.1-0.1c-0.1,0-0.2,0.1-0.5,0.3c-0.6,0.4-1.2,0.6-1.8,0.7c-0.3,0-0.5,0.1-0.5,0.3
		c0,0.1,0.1,0.2,0.3,0.2c0.3,0.1,0.5,0.1,0.6,0.2c0.1,0.1,0.2,0.2,0.2,0.4c0,0.1,0,0.5,0,1v9.9c0,0.7-0.1,1.2-0.2,1.4
		c-0.1,0.2-0.4,0.4-0.7,0.4c-0.2,0-0.3,0.1-0.4,0.1c-0.1,0-0.1,0.1-0.1,0.2c0,0.2,0.1,0.3,0.4,0.3c0.1,0,0.3,0,0.5,0
		c0.7-0.1,1.1-0.1,1.4-0.1s0.6,0,0.9,0c0.5,0,0.7,0,0.8,0c0.3,0,0.4-0.1,0.4-0.3c0-0.1-0.1-0.2-0.1-0.2S56,109,55.8,109
		c-0.3,0-0.5-0.2-0.6-0.4c-0.1-0.3-0.1-0.7-0.1-1.4v-1.8c0-0.2,0.1-0.4,0.2-0.6c0.2-0.2,0.3-0.3,0.4-0.3c0.1,0,0.2,0.1,0.3,0.3
		l1.7,3.4c0.1,0.2,0.1,0.4,0.1,0.5c0,0.1-0.1,0.2-0.3,0.3c-0.2,0-0.3,0.1-0.3,0.1c-0.1,0-0.1,0.1-0.1,0.2c0,0.2,0.1,0.3,0.3,0.3
		c0.1,0,0.2,0,0.3,0c0.2,0,0.7,0,1.4,0c0.7,0,1.2,0,1.5,0c0.2,0,0.2,0,0.3,0c0.3,0,0.4-0.1,0.4-0.3C61.3,109.1,61.2,109,61.1,109z"
		/>
	<path class="st0" d="M35.8,99.9c-0.7-0.6-1.5-0.9-2.4-0.9c-0.6,0-1.2,0.2-1.9,0.6c-0.6,0.3-1.1,0.8-1.5,1.4c-0.7,0.9-1,2-1,3.3
		c0,1.6,0.5,3,1.5,4.1c0.4,0.4,0.8,0.7,1.3,0.9c0.5,0.2,1,0.3,1.5,0.3c0.9,0,1.7-0.3,2.5-1c1.3-1.1,1.9-2.6,1.9-4.3
		C37.7,102.4,37.1,100.9,35.8,99.9z M34.9,108c-0.4,0.7-0.9,1.1-1.5,1.1c-0.6,0-1.1-0.4-1.5-1.1c-0.5-1-0.8-2.2-0.8-3.7
		s0.3-2.7,0.8-3.7c0.2-0.3,0.4-0.6,0.7-0.8c0.3-0.2,0.5-0.3,0.8-0.3c0.6,0,1,0.4,1.5,1.1c0.5,1,0.8,2.2,0.8,3.8
		C35.7,105.8,35.4,107,34.9,108z"/>
	<path class="st0" d="M70,107.5c-0.1,0-0.2,0.1-0.3,0.3c-0.2,0.3-0.4,0.5-0.6,0.5c-0.3,0-0.4-0.1-0.5-0.4c-0.1-0.3-0.1-0.7-0.1-1.3
		v-5.7c0-0.8-0.2-1.3-0.7-1.4c-0.3-0.3-0.8-0.4-1.5-0.4c-1.1,0-2.1,0.3-3,1c-0.5,0.3-0.8,0.7-1.1,1.2c-0.3,0.4-0.4,0.8-0.4,1.2
		c0,0.2,0,0.4,0.1,0.5c0.1,0.1,0.2,0.2,0.4,0.2s0.4,0,0.6-0.1c0.2-0.1,0.4-0.2,0.5-0.3c0.2-0.2,0.3-0.6,0.4-1.1
		c0.2-0.7,0.3-1.2,0.5-1.4c0.4-0.4,0.8-0.6,1.3-0.6c0.3,0,0.6,0.1,0.7,0.3c0.1,0.3,0.2,0.7,0.2,1.2v1.2c0,0.3-0.1,0.5-0.2,0.7
		c-0.1,0.2-0.4,0.5-1,0.9c-1.1,0.9-1.9,1.5-2.3,1.9c-0.7,0.6-1,1.3-1,2c0,0.5,0.2,0.9,0.5,1.3c0.4,0.3,0.8,0.5,1.3,0.5
		c0.8,0,1.6-0.5,2.4-1.5c0.2-0.1,0.2-0.2,0.3-0.2s0.1,0.1,0.2,0.3c0.4,0.9,0.9,1.4,1.5,1.4c0.6,0,1.1-0.3,1.6-0.9
		c0.3-0.4,0.4-0.7,0.4-1C70.2,107.6,70.1,107.5,70,107.5z M66.6,106.4c0,0.5-0.1,0.9-0.5,1.2c-0.3,0.3-0.6,0.5-1,0.5
		c-0.3,0-0.5-0.1-0.7-0.3c-0.2-0.2-0.3-0.5-0.3-0.9c0-0.8,0.4-1.6,1.3-2.4c0.6-0.5,0.9-0.8,1-0.8c0.1,0,0.2,0.1,0.2,0.4V106.4z"/>
	<path class="st0" d="M43.9,99c-0.4,0-0.7,0.1-1.1,0.4c-0.4,0.3-0.7,0.7-1,1.1c-0.1,0.1-0.1,0.2-0.2,0.2c-0.1,0-0.1-0.1-0.1-0.3
		v-1.2c0-0.1,0-0.1,0-0.2c-0.1,0-0.2,0.1-0.3,0.3c-0.2,0.2-0.5,0.5-0.9,0.7c-0.4,0.2-0.7,0.3-1,0.4c-0.2,0-0.3,0.1-0.4,0.1
		c-0.1,0-0.1,0.1-0.1,0.2s0.2,0.2,0.5,0.2s0.5,0.1,0.6,0.3c0.1,0.1,0.1,0.6,0.1,1.3v4.6c0,0.7-0.1,1.2-0.2,1.4
		c-0.1,0.2-0.4,0.4-0.7,0.4c-0.2,0-0.3,0.1-0.4,0.1c-0.1,0-0.1,0.1-0.1,0.2c0,0.2,0.1,0.3,0.4,0.3c0.1,0,0.3,0,0.5,0
		c0.7-0.1,1.1-0.1,1.4-0.1c0.2,0,0.5,0,0.9,0c0.5,0,0.8,0,0.9,0c0.3,0,0.4-0.1,0.4-0.3c0-0.1,0-0.2-0.1-0.2c-0.1,0-0.2-0.1-0.4-0.1
		c-0.4,0-0.6-0.2-0.7-0.4c-0.1-0.2-0.2-0.7-0.2-1.4v-3.4c0-1.2,0.2-2.1,0.6-2.7c0.3-0.4,0.6-0.6,0.8-0.6c0.2,0,0.3,0.2,0.3,0.5
		c0,0.3,0,0.6,0.2,0.8c0.2,0.2,0.4,0.3,0.6,0.3c0.3,0,0.6-0.1,0.8-0.4c0.2-0.3,0.3-0.6,0.3-1c0-0.5-0.2-0.8-0.4-1.1
		C44.6,99.1,44.3,99,43.9,99z"/>
	<path class="st0" d="M136.7,107.5c-0.1,0-0.2,0.1-0.3,0.3c-0.2,0.3-0.4,0.5-0.6,0.5c-0.3,0-0.4-0.1-0.5-0.4
		c-0.1-0.3-0.1-0.7-0.1-1.3v-5.7c0-0.8-0.2-1.3-0.7-1.4c-0.3-0.3-0.8-0.4-1.5-0.4c-1.1,0-2.1,0.3-3,1c-0.5,0.3-0.8,0.7-1.1,1.2
		c-0.3,0.4-0.4,0.8-0.4,1.2c0,0.2,0,0.4,0.1,0.5c0.1,0.1,0.2,0.2,0.4,0.2c0.2,0,0.4,0,0.6-0.1c0.2-0.1,0.4-0.2,0.5-0.3
		c0.2-0.2,0.3-0.6,0.4-1.1c0.2-0.7,0.3-1.2,0.5-1.4c0.4-0.4,0.8-0.6,1.3-0.6c0.3,0,0.6,0.1,0.7,0.3c0.1,0.3,0.2,0.7,0.2,1.2v1.2
		c0,0.3-0.1,0.5-0.2,0.7c-0.1,0.2-0.4,0.5-1,0.9c-1.1,0.9-1.9,1.5-2.3,1.9c-0.7,0.6-1,1.3-1,2c0,0.5,0.2,0.9,0.5,1.3
		c0.4,0.3,0.8,0.5,1.3,0.5c0.8,0,1.6-0.5,2.4-1.5c0.2-0.1,0.2-0.2,0.3-0.2s0.1,0.1,0.2,0.3c0.4,0.9,0.9,1.4,1.5,1.4
		c0.6,0,1.1-0.3,1.6-0.9c0.3-0.4,0.4-0.7,0.4-1C136.9,107.6,136.8,107.5,136.7,107.5z M133.3,106.4c0,0.5-0.1,0.9-0.5,1.2
		c-0.3,0.3-0.6,0.5-1,0.5c-0.3,0-0.5-0.1-0.7-0.3c-0.2-0.2-0.3-0.5-0.3-0.9c0-0.8,0.4-1.6,1.3-2.4c0.6-0.5,0.9-0.8,1-0.8
		c0.1,0,0.2,0.1,0.2,0.4V106.4z"/>
	<path class="st0" d="M115.3,109c-0.4,0-0.6-0.2-0.7-0.4c-0.1-0.2-0.2-0.7-0.2-1.4V102c0-0.9-0.2-1.6-0.7-2.1
		c-0.4-0.6-1.1-0.8-1.9-0.8c-0.4,0-0.7,0-1.1,0.2c-0.4,0.2-0.7,0.4-1.1,0.8c-0.2,0.2-0.3,0.3-0.4,0.3c-0.1,0-0.1-0.1-0.1-0.2v-1
		c0-0.2-0.1-0.3-0.1-0.2c-0.1,0-0.2,0.1-0.4,0.3c-0.3,0.2-0.6,0.4-1,0.6c-0.4,0.2-0.7,0.3-1,0.4c-0.3,0.1-0.5,0.2-0.5,0.3
		c0,0.1,0.1,0.2,0.3,0.2c0.4,0,0.6,0.1,0.7,0.2c0.1,0.2,0.1,0.5,0.1,1v5.4c0,0.7-0.1,1.2-0.2,1.4c-0.1,0.2-0.4,0.4-0.7,0.4
		c-0.2,0-0.3,0.1-0.4,0.1s-0.1,0.1-0.1,0.2c0,0.2,0.1,0.3,0.4,0.3c0.1,0,0.3,0,0.5,0c0.7-0.1,1.1-0.1,1.4-0.1s0.6,0,0.9,0
		c0.4,0,0.6,0,0.7,0c0.3,0,0.4-0.1,0.4-0.3c0-0.1-0.1-0.2-0.1-0.2s-0.1-0.1-0.3-0.1c-0.3,0-0.5-0.2-0.6-0.4
		c-0.1-0.3-0.1-0.7-0.1-1.4v-4.2c0-0.6,0-1,0.1-1.3c0-0.2,0.1-0.5,0.3-0.7c0.4-0.6,0.9-0.9,1.5-0.9c0.6,0,1,0.3,1.3,0.7
		c0.2,0.4,0.3,1,0.3,1.8v4.6c0,0.7,0,1.2-0.1,1.4c-0.1,0.2-0.3,0.3-0.6,0.4c-0.1,0-0.3,0.1-0.3,0.1c-0.1,0-0.1,0.1-0.1,0.2
		c0,0.2,0.1,0.3,0.4,0.3c0.1,0,0.2,0,0.4,0c0.6-0.1,1-0.1,1.3-0.1s0.6,0,1,0c0.5,0,0.8,0,0.9,0c0.3,0,0.4-0.1,0.4-0.3
		C115.8,109.1,115.6,109,115.3,109z"/>
	<path class="st0" d="M125.8,95.4c-0.3,0-0.5,0.1-0.7,0.3c-0.2,0.3-0.3,0.6-0.3,0.9c0,0.4,0.1,0.7,0.3,0.9c0.2,0.2,0.4,0.3,0.7,0.3
		s0.5-0.1,0.7-0.3c0.2-0.3,0.3-0.6,0.3-0.9c0-0.4-0.1-0.7-0.3-0.9S126.1,95.4,125.8,95.4z"/>
	<path class="st0" d="M122.7,106.7c-0.1,0-0.2,0.2-0.3,0.4c-0.1,0.3-0.4,0.6-0.7,0.9s-0.6,0.4-1,0.4c-0.5,0-1-0.4-1.5-1
		c-0.6-0.8-0.9-2-0.9-3.6c0-1.2,0.2-2.2,0.6-3c0.4-0.8,0.9-1.2,1.4-1.2c0.3,0,0.6,0.1,0.8,0.4c0.2,0.2,0.4,0.7,0.7,1.3
		c0.2,0.4,0.4,0.6,0.4,0.7c0,0.1,0.1,0.1,0.2,0.1c0.3,0,0.4-0.1,0.4-0.4l0.1-1.7c0-0.3-0.1-0.5-0.4-0.7c-0.4-0.3-1-0.4-1.8-0.4
		c-1,0-1.9,0.3-2.6,0.8c-1.3,1.1-2,2.7-2,4.8c0,1.6,0.4,2.9,1.1,3.8c0.7,0.9,1.6,1.3,2.6,1.3c1.2,0,2.1-0.6,2.8-1.7
		c0.3-0.4,0.4-0.7,0.4-0.9S122.9,106.7,122.7,106.7z"/>
	<path class="st0" d="M126.7,99.1c-0.1,0-0.2,0.1-0.4,0.2c-0.2,0.2-0.6,0.4-1,0.6c-0.4,0.2-0.8,0.4-1.1,0.4c-0.2,0-0.3,0.1-0.4,0.1
		c-0.1,0-0.1,0.1-0.1,0.2c0,0.1,0,0.2,0.2,0.2c0.5,0,0.8,0,0.9,0.2c0.1,0.2,0.2,0.6,0.2,1.2v8c0,1.4-0.2,2.5-0.6,3.1
		c-0.1,0.2-0.4,0.5-0.8,0.9c-0.1,0.1-0.2,0.2-0.2,0.3c0,0.1,0,0.2,0.2,0.2c0.2,0,0.6-0.2,1.1-0.7c0.7-0.7,1.3-1.4,1.6-2.2
		c0.3-0.7,0.5-1.7,0.5-2.7v-9.7C126.8,99.1,126.7,98.9,126.7,99.1z"/>
	<path class="st0" d="M188.4,97.5c0.2-0.3,0.3-0.5,0.3-0.9c0-0.4-0.1-0.7-0.3-0.9c-0.2-0.2-0.4-0.3-0.7-0.3s-0.6,0.1-0.8,0.3
		c-0.2,0.3-0.3,0.6-0.3,0.9c0,0.4,0.1,0.7,0.3,0.9c0.2,0.2,0.4,0.3,0.7,0.3C187.9,97.8,188.2,97.7,188.4,97.5z"/>
	<path class="st0" d="M198.6,107.5c-0.1,0-0.2,0.1-0.3,0.3c-0.2,0.3-0.4,0.5-0.6,0.5c-0.3,0-0.4-0.1-0.5-0.4
		c-0.1-0.3-0.1-0.7-0.1-1.3v-5.7c0-0.8-0.2-1.3-0.6-1.4c-0.3-0.3-0.8-0.4-1.5-0.4c-1.1,0-2.1,0.3-3,1c-0.5,0.3-0.8,0.7-1.1,1.2
		c-0.3,0.4-0.4,0.8-0.4,1.2c0,0.2,0,0.4,0.1,0.5c0.1,0.1,0.2,0.2,0.4,0.2c0.1,0,0.3,0,0.5-0.1c0.2-0.1,0.4-0.2,0.5-0.3
		c0.2-0.2,0.3-0.6,0.4-1.1c0.2-0.7,0.3-1.2,0.5-1.4c0.4-0.4,0.8-0.6,1.3-0.6c0.3,0,0.6,0.1,0.7,0.3c0.1,0.3,0.2,0.7,0.2,1.2v1.2
		c0,0.3-0.1,0.5-0.2,0.7c-0.1,0.2-0.4,0.5-1,0.9c-1.1,0.9-1.9,1.5-2.3,1.9c-0.7,0.6-1,1.3-1,2c0,0.5,0.2,0.9,0.5,1.3
		c0.4,0.3,0.8,0.5,1.3,0.5c0.8,0,1.6-0.5,2.4-1.5c0.2-0.1,0.2-0.2,0.3-0.2c0.1,0,0.1,0.1,0.2,0.3c0.4,0.9,0.9,1.4,1.5,1.4
		c0.6,0,1.1-0.3,1.6-0.9c0.3-0.4,0.4-0.7,0.4-1C198.8,107.6,198.7,107.5,198.6,107.5z M195.2,106.4c0,0.5-0.1,0.9-0.5,1.2
		c-0.3,0.3-0.6,0.5-1,0.5c-0.3,0-0.5-0.1-0.7-0.3c-0.2-0.2-0.3-0.5-0.3-0.9c0-0.8,0.4-1.6,1.3-2.4c0.6-0.5,0.9-0.8,1-0.8
		s0.2,0.1,0.2,0.4V106.4z"/>
	<path class="st0" d="M189.9,109c-0.1,0-0.2-0.1-0.4-0.1c-0.4,0-0.6-0.2-0.7-0.4c-0.1-0.3-0.2-0.7-0.2-1.4v-7.8
		c0-0.3-0.1-0.4-0.2-0.3c0,0-0.1,0.1-0.3,0.2c-0.2,0.2-0.6,0.4-1,0.6c-0.4,0.2-0.8,0.4-1.1,0.4c-0.3,0-0.4,0.1-0.4,0.3
		c0,0.1,0,0.2,0.1,0.2c0.1,0.1,0.2,0.1,0.4,0.1c0.3,0,0.5,0.1,0.6,0.3c0.1,0.2,0.2,0.6,0.2,1.1v5c0,0.7-0.1,1.2-0.2,1.4
		c-0.1,0.2-0.4,0.4-0.7,0.4c-0.2,0-0.3,0.1-0.4,0.1c-0.1,0-0.1,0.1-0.1,0.2c0,0.2,0.1,0.3,0.4,0.3c0.1,0,0.3,0,0.5,0
		c0.7-0.1,1.1-0.1,1.4-0.1c0.2,0,0.5,0,0.9,0c0.5,0,0.8,0,0.9,0c0.3,0,0.4-0.1,0.4-0.3C190,109.1,190,109,189.9,109z"/>
	<path class="st0" d="M184.7,109c-0.4,0-0.6-0.2-0.7-0.4c-0.1-0.3-0.2-0.7-0.2-1.4V102c0-0.9-0.2-1.6-0.7-2.1
		c-0.4-0.6-1.1-0.8-1.9-0.8c-0.4,0-0.7,0-1.1,0.2c-0.4,0.2-0.7,0.4-1.1,0.8c-0.2,0.2-0.3,0.3-0.4,0.3c-0.1,0-0.1-0.1-0.1-0.2v-1
		c0-0.2-0.1-0.3-0.1-0.2c-0.1,0-0.2,0.1-0.4,0.3c-0.3,0.2-0.6,0.4-1,0.6c-0.4,0.2-0.7,0.3-1,0.4c-0.3,0.1-0.5,0.2-0.5,0.3
		c0,0.1,0.1,0.2,0.3,0.2c0.4,0,0.6,0.1,0.7,0.2c0.1,0.2,0.1,0.5,0.1,1v5.4c0,0.7-0.1,1.2-0.2,1.4c-0.1,0.2-0.4,0.4-0.7,0.4
		c-0.2,0-0.3,0.1-0.4,0.1c-0.1,0-0.1,0.1-0.1,0.2c0,0.2,0.1,0.3,0.4,0.3c0.1,0,0.3,0,0.5,0c0.7-0.1,1.1-0.1,1.4-0.1s0.6,0,0.9,0
		c0.4,0,0.6,0,0.7,0c0.3,0,0.4-0.1,0.4-0.3c0-0.1-0.1-0.2-0.1-0.2s-0.1-0.1-0.3-0.1c-0.3,0-0.5-0.2-0.6-0.4
		c-0.1-0.3-0.1-0.7-0.1-1.4v-4.2c0-0.6,0-1,0.1-1.3c0-0.2,0.1-0.5,0.3-0.7c0.4-0.6,0.9-0.9,1.5-0.9c0.6,0,1,0.3,1.3,0.7
		c0.2,0.4,0.3,1,0.3,1.8v4.6c0,0.7,0,1.2-0.1,1.4c-0.1,0.2-0.3,0.3-0.6,0.4c-0.1,0-0.3,0.1-0.3,0.1c-0.1,0-0.1,0.1-0.1,0.2
		c0,0.2,0.1,0.3,0.4,0.3c0.1,0,0.2,0,0.4,0c0.6-0.1,1-0.1,1.3-0.1s0.6,0,1,0c0.5,0,0.8,0,0.9,0c0.3,0,0.4-0.1,0.4-0.3
		C185.2,109.1,185,109,184.7,109z"/>
	<path class="st0" d="M156,102.6c-0.1,0-0.2,0-0.4,0c-0.4,0-1.2,0-2.4,0h-1.3c-0.3,0-0.5,0.1-0.5,0.3s0.2,0.3,0.6,0.3
		c0.4,0,0.7,0.1,0.8,0.2c0.1,0.2,0.2,0.5,0.2,0.9v3.3c0,0.4,0,0.6-0.1,0.8c-0.1,0.2-0.2,0.3-0.3,0.4c-0.3,0.2-0.7,0.3-1.2,0.3
		s-1-0.2-1.5-0.5c-0.7-0.5-1.3-1.3-1.7-2.5c-0.4-1.1-0.6-2.4-0.6-3.8c0-1.1,0.1-2,0.3-2.9s0.5-1.6,0.8-2.1c0.3-0.4,0.7-0.8,1.2-1.1
		c0.4-0.3,0.9-0.4,1.4-0.4c0.6,0,1,0.2,1.4,0.7c0.2,0.2,0.5,0.7,0.9,1.5c0.2,0.6,0.4,1,0.5,1.1c0.1,0.1,0.2,0.2,0.3,0.2
		c0.3,0,0.4-0.2,0.4-0.5v-0.1l-0.1-2.2c0-0.4-0.1-0.6-0.2-0.8c-0.3-0.2-0.7-0.3-1.2-0.4c-0.5-0.1-1-0.2-1.5-0.2
		c-1.6,0-3,0.6-4.2,1.6c-1.6,1.4-2.4,3.4-2.4,5.8c0,2.3,0.7,4.1,2.1,5.5c1.1,1.1,2.3,1.7,3.7,1.7c0.7,0,1.3-0.1,2-0.3
		c0.7-0.2,1.2-0.5,1.7-0.9c0.2-0.2,0.3-0.3,0.3-0.4c0.1-0.1,0.1-0.4,0.1-0.8v-3.2c0-0.3,0-0.6,0.1-0.7c0.1-0.1,0.3-0.2,0.5-0.2
		c0.3,0,0.4-0.1,0.5-0.1c0.1,0,0.1-0.1,0.1-0.2C156.3,102.7,156.2,102.6,156,102.6z"/>
	<path class="st0" d="M165.9,107.5h-0.1c0,0-0.1,0.1-0.2,0.3c-0.1,0.3-0.3,0.5-0.5,0.5c-0.1,0-0.2,0-0.2-0.1
		c-0.1-0.1-0.1-0.3-0.1-0.5V94.5c0-0.3-0.1-0.5-0.4-0.4c-0.1,0-0.2,0.1-0.5,0.2c-0.3,0.2-0.6,0.3-1,0.5c-0.4,0.2-0.7,0.3-0.9,0.3
		c-0.3,0.1-0.5,0.2-0.5,0.3c0,0.2,0.2,0.3,0.5,0.3s0.5,0.1,0.6,0.2c0.1,0.1,0.1,0.3,0.1,0.6v2.7c0,0.3-0.1,0.4-0.2,0.4
		c-0.1,0-0.1-0.1-0.2-0.1c-0.4-0.3-0.9-0.4-1.4-0.4c-1,0-1.8,0.4-2.6,1.2c-1.1,1.1-1.6,2.6-1.6,4.5c0,1.5,0.4,2.7,1.1,3.6
		c0.7,0.8,1.4,1.2,2.3,1.2c0.7,0,1.4-0.3,2.2-1c0.2-0.1,0.3-0.2,0.4-0.2c0.1,0,0.2,0.3,0.2,0.8c0.1,0.3,0.1,0.4,0.1,0.5
		c0.1,0.1,0.1,0.1,0.2,0.1c0.1,0,0.2,0,0.4-0.1c0.5-0.3,1-0.6,1.6-0.9c0.5-0.2,0.7-0.3,0.8-0.4c0.1,0,0.1-0.2,0.1-0.5
		S166.1,107.5,165.9,107.5z M162.9,106.6c0,0.5,0,0.9-0.1,1.1c-0.1,0.2-0.3,0.4-0.6,0.6c-0.3,0.1-0.5,0.2-0.8,0.2
		c-0.6,0-1-0.3-1.4-0.9c-0.5-0.9-0.8-2.1-0.8-3.6c0-1.3,0.2-2.4,0.6-3.2c0.4-0.8,0.9-1.2,1.6-1.2c0.4,0,0.8,0.2,1.1,0.6
		s0.4,0.9,0.4,1.5V106.6z"/>
	<path class="st0" d="M175.3,99.7c0-0.2-0.1-0.2-0.3-0.2c-0.1,0-0.3,0-0.5,0s-0.4,0-0.5,0c-0.8,0-1.3,0-1.6,0c-0.1,0-0.2,0-0.3,0
		c-0.2,0-0.3,0.1-0.3,0.3c0,0.1,0,0.2,0.1,0.2c0.1,0,0.2,0.1,0.5,0.1c0.5,0,0.7,0.2,0.7,0.6c0,0.1,0,0.3-0.1,0.6l-1.8,5.5l-1.9-5.8
		c-0.1-0.3-0.1-0.4-0.1-0.6c0-0.3,0.2-0.5,0.7-0.5c0.4,0,0.6-0.1,0.6-0.3s-0.1-0.2-0.3-0.2c-0.1,0-0.3,0-0.4,0c-0.1,0-0.4,0-0.7,0
		c-1.4,0-2.2,0-2.6-0.1c-0.1,0-0.2,0-0.2,0c-0.2,0-0.3,0.1-0.3,0.3s0.1,0.2,0.3,0.3c0.3,0,0.6,0.1,0.7,0.3c0.1,0.2,0.3,0.5,0.5,1
		l2.5,7.6c0.2,0.5,0.2,0.8,0.2,0.9c0,0.2-0.1,0.7-0.4,1.4c0,0.1-0.1,0.3-0.2,0.5c-0.1,0.2-0.1,0.3-0.2,0.4c-0.1,0.1-0.2,0.1-0.4,0.1
		c-0.1,0-0.2,0-0.3,0c-0.2,0-0.4,0-0.5,0c-0.3,0-0.5,0.1-0.6,0.3c-0.1,0.2-0.2,0.5-0.2,1c0,0.3,0.1,0.5,0.2,0.7
		c0.2,0.1,0.4,0.2,0.8,0.2c0.4,0,0.7-0.1,0.9-0.3c0.2-0.2,0.4-0.6,0.6-1.2l3.9-11.6c0.1-0.5,0.3-0.8,0.4-0.9
		c0.1-0.2,0.3-0.3,0.6-0.3c0.2,0,0.4-0.1,0.4-0.1C175.3,99.9,175.3,99.8,175.3,99.7z"/>
	<polygon class="st0" points="45.2,56.4 145.7,56.4 150,52.3 50.1,52.3 	"/>
	<polygon class="st0" points="205.3,37 195.7,46 235.1,46 245.3,37 	"/>
	<path class="st0" d="M162.9,47.4c8.7,4.6,19.6,0.8,19.6,0.8c0.1,9.1-7.6,10.8-7.6,10.8c-5.2,1.3-8.1,0.1-8.1,0.1
		c-2.7-0.8-3.8-3.6-3.8-3.6c-1.5-3.6-4.5-4.4-4.5-4.4c-3.8-1.2-5.5,2.2-5.5,2.2c-1.9,4.3,3.2,6.3,3.2,6.3c8.1,4.1,15.2,3.4,15.2,3.4
		c8.4,0,12.6-3.4,12.6-3.4c5.6-4.3,7.9-10.4,7.9-10.4c2.2-5.2,3.9-17.2,5.4-19.7s4.6-2.8,4.6-2.8c1.3-1.5,0.5-2.5,0.5-2.5h-18.5
		c-1.5,1.3,0.4,2.3,0.4,2.3c0.5,0.2,1.5,1.4,1.5,1.4c1.4,1.9,0.5,7,0.5,7c-1.1,4.5-3.6,7.1-3.6,7.1c-3.7,4.4-9.6,3.3-9.6,3.3
		c-7.3-1.1-8.5-7.6-8.5-7.6c-1.5-8.8,0.9-15.5,0.9-15.5c2.8-10.4,10.3-15.1,10.3-15.1c6.6-3.9,11.8-0.6,11.8-0.6
		c1.8,1.2,7.6,6.9,7.6,6.9c4.6,1.3,3.1-2.4,3.1-2.4s-2-6.6-2.6-8.7c-0.6-2.2-2.2-2-2.2-2c-1.9-0.6-3.7,1.1-3.7,1.1
		c-0.8,0.7-2.4,0.3-2.4,0.3c-3.6-1.2-8.4-1.2-8.4-1.2c-10.6,1.2-16.8,9-16.8,9c-8.5,10.1-8.3,22.3-8.3,22.3
		C154.4,43.6,162.9,47.4,162.9,47.4z"/>
	<path class="st0" d="M105.9,44.3l-1,0.1c0,0-1.5,0.3-1.2,1.8c0,0,0.2,0.8,1.2,0.9h16c0,0,1.2-1,0.4-2.1c0,0-0.9-0.7-2-0.7
		c0,0-2.7-0.2-1.7-2.2l6-10.2l12.9,0.2l1.2,9.4c0,0,0.2,2.6-1.6,2.7l-3.4,0.3c0,0-2.3,0.3-0.9,2.5h22c0,0.1,1.2-1.3-0.6-2.2
		c0,0-2.6,0.3-3.8-1.7l-7.6-39.7c0,0-1-3.1-3.2-3.2c0,0-2.2-0.3-3.7,2.2l-25.1,40.4C109.8,42.8,107.7,44.3,105.9,44.3z M133,15.8
		c0,0,0.5-1.2,1-0.2l1.6,10.5h-8.5L133,15.8z"/>
	<path class="st0" d="M32.2,59.5c0,0,6.1-2.2,13.8-10.2c0,0,4.2-5,8-13.7l6-16.1l4.5,25.6c0,0,0.5,4.1,3.6,3.4c0,0,1.7-0.6,3.5-2.7
		l21.1-29.6L86,41.1c0,0-0.6,2.4-3.6,2.8l-2.5,0.5c0,0-1.5,1-0.1,2.2l21.7,0.3c0,0,1.6-0.8,0.3-2.3l-3.2-1.4c0,0-1.3-0.6-0.7-2.9
		l7.7-31.7c0,0,0.4-3.6,3.4-4.2c0,0,2-0.3,2.6-0.4c1.5,0.1,2-2.3,0.5-2.8H96.4L72.3,35.8l-4.7-31c0,0-0.1-3.5-5.5-3.1L37,1.8
		c0,0-13.5,1.2-14.8,10.8c0,0-1.3,7.5,4.4,11.2c0,0,2.9,2.2,8.1,2.6c0,0,3.6,0.5,8.8-2.8c0,0,2.7-2,1.4-5.3c0,0-1.7-3.5-6.2-1.4
		c0,0-1.7,0.8-3,2.5c0,0-1.9,2.5-5.4,0.5c0,0-2.9-1.7-2.6-5.6c0,0-0.4-5.3,8.2-8.3c0,0,11-2.7,18.6,1.5c0,0,1.6,1.2,0.5,4.5
		c0,0-6,19.4-6.4,20.2c0,0-3.9,9.7-8.3,15.3c0,0-4.3,5.9-12.1,8.9c0,0-4.5,2.2-13.2,0.9c0,0-6.5-1.1-8.6-7.4c0,0-1.7-5,1.4-10
		c0,0,2.7-4.7,8.6-3.2c0,0,3.2,0.5,6.3,3.4c0,0,2.3,1.9,5,0.7c0,0,3.7-1.6,2.8-5.3c0,0-0.7-2-3.1-3.3c-0.9-0.5-11-5.1-20.6,2.2
		c0,0-9.2,6.3-6.4,16.1c0,0,1.4,7.5,13.2,10.8C13.6,61.3,22.4,63.4,32.2,59.5z"/>
	<path class="st0" d="M203.9,56c0,0-8.2,5.7-17.5,14.5l-159-0.2L16.6,80.7h169.2c0,0,8.6-11.9,21-20.6c0,0,9.6-7.6,17.4-6.2l6.5-4.9
		C230.7,49,216.1,47.8,203.9,56z"/>
	<path class="st0" d="M213.2,68.2c-3.5,0-6.3,2.8-6.3,6.3c-0.1,1.6,0.6,3.2,1.7,4.4c1.2,1.2,2.8,1.9,4.6,1.9c3.5,0,6.3-2.8,6.3-6.3
		S216.7,68.2,213.2,68.2z M213.2,79.8c-1.5,0-2.9-0.6-3.9-1.6c-1-1-1.5-2.3-1.4-3.7c0-2.9,2.4-5.3,5.3-5.3s5.3,2.4,5.3,5.3
		S216.1,79.8,213.2,79.8z"/>
	<path class="st0" d="M216.3,72.9c0-1.2-1-1.9-3-1.9h-2.8v6.9h1.6V75h1.1l1.4,2.9h1.7l-1.6-3.1C215.7,74.6,216.3,73.9,216.3,72.9z
		 M213,74.2h-1V72h0.9c1.2,0,1.8,0.3,1.8,1.1C214.7,73.8,214.2,74.2,213,74.2z"/>
</g>
</svg>
